HIERARCHY
ROOT Root
{
  OFFSET 0.0 0.0 0.0
  CHANNELS 6 Xposition Yposition Zposition Zrotation Yrotation Xrotation
  JOINT Hips
  {
    OFFSET 0.0 100.0 0.0
    CHANNELS 6 Xposition Yposition Zposition Zrotation Yrotation Xrotation
    JOINT Spine1
    {
      OFFSET 5.003913 -0.037094 -0.013727
      CHANNELS 3 Zrotation Yrotation Xrotation
      JOINT Spine2
      {
        OFFSET 7.125363 -1e-06 0.0
        CHANNELS 3 Zrotation Yrotation Xrotation
        JOINT Chest
        {
          OFFSET 7.594027 1e-06 0.0
          CHANNELS 3 Zrotation Yrotation Xrotation
          JOINT Neck1
          {
            OFFSET 26.313086 -0.460272 -0.181672
            CHANNELS 3 Zrotation Yrotation Xrotation
            JOINT Neck2
            {
              OFFSET 8.045911 0.0 0.0
              CHANNELS 3 Zrotation Yrotation Xrotation
              JOINT Head
              {
                OFFSET 6.432774 0.0 0.0
                CHANNELS 3 Zrotation Yrotation Xrotation
                JOINT HeadEnd
                {
                  OFFSET 16.169773 0.06451 0.00362
                  CHANNELS 3 Zrotation Yrotation Xrotation
                }
                JOINT Jaw
                {
                  OFFSET 0.108741 3.12938 0.002639
                  CHANNELS 3 Zrotation Yrotation Xrotation
                }
                JOINT LeftEye
                {
                  OFFSET 4.45173 8.166359 3.206392
                  CHANNELS 3 Zrotation Yrotation Xrotation
                }
                JOINT RightEye
                {
                  OFFSET 4.436895 8.135758 -3.222429
                  CHANNELS 3 Zrotation Yrotation Xrotation
                }
              }
            }
          }
          JOINT LeftShoulder
          {
            OFFSET 23.218927 5.195579 1.621656
            CHANNELS 3 Zrotation Yrotation Xrotation
            JOINT LeftArm
            {
              OFFSET 15.902118 2e-06 -2e-06
              CHANNELS 3 Zrotation Yrotation Xrotation
              JOINT LeftForeArm
              {
                OFFSET 28.739307 0.0 -1e-06
                CHANNELS 3 Zrotation Yrotation Xrotation
                JOINT LeftHand
                {
                  OFFSET 27.093981 -4e-06 0.0
                  CHANNELS 3 Zrotation Yrotation Xrotation
                  JOINT LeftHandThumb1
                  {
                    OFFSET 2.276781 3.380274 0.83384
                    CHANNELS 3 Zrotation Yrotation Xrotation
                    JOINT LeftHandThumb2
                    {
                      OFFSET 4.705309 -1e-06 -1e-06
                      CHANNELS 3 Zrotation Yrotation Xrotation
                      JOINT LeftHandThumb3
                      {
                        OFFSET 2.798515 0.0 3e-06
                        CHANNELS 3 Zrotation Yrotation Xrotation
                        JOINT LeftHandThumbEnd
                        {
                          OFFSET 3.180793 4e-06 -4e-06
                          CHANNELS 3 Zrotation Yrotation Xrotation
                        }
                      }
                    }
                  }
                  JOINT LeftHandIndex1
                  {
                    OFFSET 3.247786 2.352677 0.137192
                    CHANNELS 3 Zrotation Yrotation Xrotation
                    JOINT LeftHandIndex2
                    {
                      OFFSET 6.367095 1e-06 0.0
                      CHANNELS 3 Zrotation Yrotation Xrotation
                      JOINT LeftHandIndex3
                      {
                        OFFSET 3.662364 0.0 0.0
                        CHANNELS 3 Zrotation Yrotation Xrotation
                        JOINT LeftHandIndex4
                        {
                          OFFSET 2.329242 4e-06 -4e-06
                          CHANNELS 3 Zrotation Yrotation Xrotation
                          JOINT LeftHandIndexEnd
                          {
                            OFFSET 2.767823 1e-06 0.0
                            CHANNELS 3 Zrotation Yrotation Xrotation
                          }
                        }
                      }
                    }
                  }
                  JOINT LeftHandMiddle1
                  {
                    OFFSET 3.163612 0.945023 -0.406112
                    CHANNELS 3 Zrotation Yrotation Xrotation
                    JOINT LeftHandMiddle2
                    {
                      OFFSET 6.276789 3e-06 0.0
                      CHANNELS 3 Zrotation Yrotation Xrotation
                      JOINT LeftHandMiddle3
                      {
                        OFFSET 4.35652 -1e-06 4e-06
                        CHANNELS 3 Zrotation Yrotation Xrotation
                        JOINT LeftHandMiddle4
                        {
                          OFFSET 2.996877 0.0 8e-06
                          CHANNELS 3 Zrotation Yrotation Xrotation
                          JOINT LeftHandMiddleEnd
                          {
                            OFFSET 2.323256 3e-06 -4e-06
                            CHANNELS 3 Zrotation Yrotation Xrotation
                          }
                        }
                      }
                    }
                  }
                  JOINT LeftHandRing1
                  {
                    OFFSET 2.882606 -0.309162 0.107445
                    CHANNELS 3 Zrotation Yrotation Xrotation
                    JOINT LeftHandRing2
                    {
                      OFFSET 6.033198 0.0 4e-06
                      CHANNELS 3 Zrotation Yrotation Xrotation
                      JOINT LeftHandRing3
                      {
                        OFFSET 4.350578 3e-06 0.0
                        CHANNELS 3 Zrotation Yrotation Xrotation
                        JOINT LeftHandRing4
                        {
                          OFFSET 2.651321 2e-06 -7e-06
                          CHANNELS 3 Zrotation Yrotation Xrotation
                          JOINT LeftHandRingEnd
                          {
                            OFFSET 1.937663 1e-06 -4e-06
                            CHANNELS 3 Zrotation Yrotation Xrotation
                          }
                        }
                      }
                    }
                  }
                  JOINT LeftHandPinky1
                  {
                    OFFSET 2.865315 -1.525436 0.575687
                    CHANNELS 3 Zrotation Yrotation Xrotation
                    JOINT LeftHandPinky2
                    {
                      OFFSET 5.54936 1e-06 -8e-06
                      CHANNELS 3 Zrotation Yrotation Xrotation
                      JOINT LeftHandPinky3
                      {
                        OFFSET 3.070974 0.0 -4e-06
                        CHANNELS 3 Zrotation Yrotation Xrotation
                        JOINT LeftHandPinky4
                        {
                          OFFSET 1.549672 1e-06 0.0
                          CHANNELS 3 Zrotation Yrotation Xrotation
                          JOINT LeftHandPinkyEnd
                          {
                            OFFSET 1.952123 0.0 0.0
                            CHANNELS 3 Zrotation Yrotation Xrotation
                          }
                        }
                      }
                    }
                  }
                }
              }
            }
          }
          JOINT RightShoulder
          {
            OFFSET 23.161716 5.296122 -1.380114
            CHANNELS 3 Zrotation Yrotation Xrotation
            JOINT RightArm
            {
              OFFSET -16.027195 -2e-06 1.1e-05
              CHANNELS 3 Zrotation Yrotation Xrotation
              JOINT RightForeArm
              {
                OFFSET -28.736639 4e-06 2e-06
                CHANNELS 3 Zrotation Yrotation Xrotation
                JOINT RightHand
                {
                  OFFSET -27.133619 6e-06 0.0
                  CHANNELS 3 Zrotation Yrotation Xrotation
                  JOINT RightHandThumb1
                  {
                    OFFSET -2.274328 -3.351035 -0.83067
                    CHANNELS 3 Zrotation Yrotation Xrotation
                    JOINT RightHandThumb2
                    {
                      OFFSET -4.703594 -3e-06 2e-06
                      CHANNELS 3 Zrotation Yrotation Xrotation
                      JOINT RightHandThumb3
                      {
                        OFFSET -2.794935 -4e-06 -3e-06
                        CHANNELS 3 Zrotation Yrotation Xrotation
                        JOINT RightHandThumbEnd
                        {
                          OFFSET -3.183852 4e-06 1e-06
                          CHANNELS 3 Zrotation Yrotation Xrotation
                        }
                      }
                    }
                  }
                  JOINT RightHandIndex1
                  {
                    OFFSET -3.253496 -2.33755 -0.127667
                    CHANNELS 3 Zrotation Yrotation Xrotation
                    JOINT RightHandIndex2
                    {
                      OFFSET -6.344434 0.0 0.0
                      CHANNELS 3 Zrotation Yrotation Xrotation
                      JOINT RightHandIndex3
                      {
                        OFFSET -3.654871 0.0 -8e-06
                        CHANNELS 3 Zrotation Yrotation Xrotation
                        JOINT RightHandIndex4
                        {
                          OFFSET -2.327586 -1e-06 0.0
                          CHANNELS 3 Zrotation Yrotation Xrotation
                          JOINT RightHandIndexEnd
                          {
                            OFFSET -2.770001 3e-06 8e-06
                            CHANNELS 3 Zrotation Yrotation Xrotation
                          }
                        }
                      }
                    }
                  }
                  JOINT RightHandMiddle1
                  {
                    OFFSET -3.168223 -0.944764 0.411762
                    CHANNELS 3 Zrotation Yrotation Xrotation
                    JOINT RightHandMiddle2
                    {
                      OFFSET -6.266691 -1e-06 -4e-06
                      CHANNELS 3 Zrotation Yrotation Xrotation
                      JOINT RightHandMiddle3
                      {
                        OFFSET -4.348901 0.0 0.0
                        CHANNELS 3 Zrotation Yrotation Xrotation
                        JOINT RightHandMiddle4
                        {
                          OFFSET -3.00024 2e-06 -4e-06
                          CHANNELS 3 Zrotation Yrotation Xrotation
                          JOINT RightHandMiddleEnd
                          {
                            OFFSET -2.321477 -4e-06 -4e-06
                            CHANNELS 3 Zrotation Yrotation Xrotation
                          }
                        }
                      }
                    }
                  }
                  JOINT RightHandRing1
                  {
                    OFFSET -2.885654 0.293261 -0.119232
                    CHANNELS 3 Zrotation Yrotation Xrotation
                    JOINT RightHandRing2
                    {
                      OFFSET -6.032835 -1e-06 -4e-06
                      CHANNELS 3 Zrotation Yrotation Xrotation
                      JOINT RightHandRing3
                      {
                        OFFSET -4.33881 0.0 -4e-06
                        CHANNELS 3 Zrotation Yrotation Xrotation
                        JOINT RightHandRing4
                        {
                          OFFSET -2.654903 -4e-06 -4e-06
                          CHANNELS 3 Zrotation Yrotation Xrotation
                          JOINT RightHandRingEnd
                          {
                            OFFSET -1.935122 0.0 4e-06
                            CHANNELS 3 Zrotation Yrotation Xrotation
                          }
                        }
                      }
                    }
                  }
                  JOINT RightHandPinky1
                  {
                    OFFSET -2.866241 1.503904 -0.60527
                    CHANNELS 3 Zrotation Yrotation Xrotation
                    JOINT RightHandPinky2
                    {
                      OFFSET -5.553177 -2e-06 0.0
                      CHANNELS 3 Zrotation Yrotation Xrotation
                      JOINT RightHandPinky3
                      {
                        OFFSET -3.062664 -1e-06 -4e-06
                        CHANNELS 3 Zrotation Yrotation Xrotation
                        JOINT RightHandPinky4
                        {
                          OFFSET -1.546529 2e-06 4e-06
                          CHANNELS 3 Zrotation Yrotation Xrotation
                          JOINT RightHandPinkyEnd
                          {
                            OFFSET -1.952341 0.0 -4e-06
                            CHANNELS 3 Zrotation Yrotation Xrotation
                          }
                        }
                      }
                    }
                  }
                }
              }
            }
          }
        }
      }
    }
    JOINT LeftLeg
    {
      OFFSET -8.443107 2.567604 10.043214
      CHANNELS 3 Zrotation Yrotation Xrotation
      JOINT LeftShin
      {
        OFFSET 43.229198 1e-06 -1e-06
        CHANNELS 3 Zrotation Yrotation Xrotation
        JOINT LeftFoot
        {
          OFFSET 42.298611 1e-06 1e-06
          CHANNELS 3 Zrotation Yrotation Xrotation
          JOINT LeftToeBase
          {
            OFFSET 14.165858 1e-06 0.0
            CHANNELS 3 Zrotation Yrotation Xrotation
            JOINT LeftToeEnd
            {
              OFFSET 6.7141 -0.234461 0.0
              CHANNELS 3 Zrotation Yrotation Xrotation
            }
          }
        }
      }
    }
    JOINT RightLeg
    {
      OFFSET -8.303923 2.592729 -10.047278
      CHANNELS 3 Zrotation Yrotation Xrotation
      JOINT RightShin
      {
        OFFSET -43.369682 0.0 1e-06
        CHANNELS 3 Zrotation Yrotation Xrotation
        JOINT RightFoot
        {
          OFFSET -42.260784 4e-06 2e-06
          CHANNELS 3 Zrotation Yrotation Xrotation
          JOINT RightToeBase
          {
            OFFSET -14.222245 -2e-06 -1e-06
            CHANNELS 3 Zrotation Yrotation Xrotation
            JOINT RightToeEnd
            {
              OFFSET -6.660062 0.232574 -2e-06
              CHANNELS 3 Zrotation Yrotation Xrotation
            }
          }
        }
      }
    }
  }
}
MOTION
Frames: 4
Frame Time: 0.03333333333333333
0.0 0.0 0.0 0.0 -0.0 0.0 -5.340479 95.230827 247.581696 91.642883 2.39132 94.493629 8.314961 -0.676145 -0.429127 -8.746291 -0.548333 -0.431384 21.733446 -2.11874 -3.057764 32.23439 -4.692923 2.620903 -2.690084 -0.629087 4.143486 -34.340031 -1.282254 6.09079 5e-06 -0.0 -0.0 0.010666 0.015804 -0.03496 0.051618 0.030625 0.000227 0.111426 -0.010137 -0.059987 -89.100876 -78.170303 109.490067 32.66766 -48.874222 4.279078 43.775051 -1.988757 -0.450323 20.508045 10.043518 22.852306 17.636631 -26.322725 52.411182 -19.466658 -14.395596 29.410381 2e-06 -8.774822 -2e-06 15.657271 -18.676788 5.837076 -0.609777 -1.795654 -3.889327 -4.807091 -11.046813 -2.93785 2e-06 -20.976019 0.0 -5.019976 -25.03356 -4.03188 5e-06 1e-06 -1e-06 -10.634534 -5.686971 -3.565587 10.573271 -17.922947 -3.113899 1e-06 -13.821208 1e-06 -0.501778 -31.181501 -4.027016 -11.436719 -59.260937 6.964291 -13.982714 -7.150199 -2.875039 13.772727 -8.401489 -3.218243 0.347728 -34.211555 0.771658 -0.963032 -17.73337 2.621021 0.0 1e-06 0.0 -17.34642 -20.095221 -4.201782 21.757555 -1.638373 3.866428 1e-06 -6.338823 3e-06 -1.697592 -22.591747 -6.194003 1e-06 -5e-06 -3e-06 92.885803 -76.987785 108.277031 39.882454 -47.340042 15.566946 49.780071 0.132543 -0.032952 1.1704 17.612684 10.355937 22.182114 -20.375896 49.933319 -16.701811 -16.743528 28.476532 -0.0 -12.6906 -0.0 16.195461 -17.537701 2.590085 -0.10592 -1.513855 -4.275881 -5.039041 -5.612872 -2.953555 3e-06 -11.020525 -3e-06 -6.111298 -15.895334 -3.840472 0.0 0.0 1e-06 -10.28337 -5.68029 -4.341837 11.028291 -11.302405 -2.372631 -1.384269 -14.238582 -6.320122 -0.625443 -26.924191 -3.827601 -4.512769 -50.043724 -3.477285 -13.708524 -7.363479 -3.720936 18.141146 -14.052739 -3.242673 5e-06 -18.787271 -3e-06 -0.429714 -8.456045 2.555503 1e-06 -0.0 -1e-06 -15.923538 -20.094486 -5.47358 30.419207 -7.190821 1.735926 3e-06 -8.162927 -2e-06 -1.861906 -22.861469 -6.167942 -0.0 -4e-06 0.0 176.420166 -0.519654 -6.12272 34.880341 -0.173781 0.338053 -97.669975 6.249851 0.285664 -6.613564 1.388163 2.106273 -0.999998 -0.0 -0.0 -25.05839 -8.013465 -16.250826 12.151694 0.163336 -0.13892 -65.709412 -0.686627 -7.192063 -9.984111 0.92875 1.640755 -1.000001 1e-06 1e-06 
0.0 0.0 0.0 0.0 -0.0 0.0 -6.019265 95.209686 249.627502 91.332024 1.828421 94.764359 8.073825 -0.304241 -0.483 -8.773979 -0.506172 -0.471572 21.777411 -1.880408 -3.307791 31.846888 -4.858395 2.769973 -2.721287 -0.492732 3.576526 -34.166893 -1.203154 5.702498 6e-06 -0.0 -1e-06 -0.017199 0.018447 -0.057018 0.038766 0.013766 -0.018377 0.097722 0.013326 -0.086354 -91.734428 -78.288063 111.897705 32.645626 -48.715179 4.187512 43.448944 -1.812994 -0.448919 20.82992 10.475951 22.142057 17.636641 -26.322733 52.41119 -19.46666 -14.395598 29.410381 0.0 -8.774822 -1e-06 15.660082 -18.633198 5.837184 -0.609779 -1.795655 -3.889327 -4.807087 -11.046807 -2.937852 6e-06 -20.976015 -1e-06 -5.01997 -25.033556 -4.031878 6e-06 -1e-06 -1e-06 -10.634535 -5.686968 -3.565585 10.573275 -17.922947 -3.113903 5e-06 -13.821208 1e-06 -0.501775 -31.181501 -4.027014 -11.385345 -59.310043 6.938 -13.982716 -7.150197 -2.875043 13.772731 -8.401493 -3.21824 0.347736 -34.211544 0.771657 -0.963026 -17.733368 2.621019 -2e-06 1e-06 0.0 -17.346422 -20.095217 -4.201779 21.757563 -1.638377 3.866428 2e-06 -6.338822 2e-06 -1.697587 -22.591742 -6.194006 -1e-06 -4e-06 -0.0 92.004822 -77.120636 109.217224 40.404739 -46.442478 15.15865 50.361649 0.059449 -0.159118 0.800035 17.745811 10.487814 22.182121 -20.375895 49.933319 -16.701813 -16.743528 28.476524 -1e-06 -12.690601 -2e-06 16.163935 -17.632223 2.5695 -0.10592 -1.513855 -4.27588 -5.039041 -5.612873 -2.953555 4e-06 -11.02052 -3e-06 -6.111297 -15.89533 -3.840471 0.0 0.0 -1e-06 -10.283371 -5.680286 -4.341839 11.028294 -11.302405 -2.372633 -1.384268 -14.238578 -6.320121 -0.625441 -26.924187 -3.827598 -4.391179 -50.049362 -3.720078 -13.708527 -7.363474 -3.720942 18.141148 -14.052739 -3.242671 9e-06 -18.787268 -5e-06 -0.429711 -8.456043 2.555504 -0.0 -0.0 1e-06 -15.923536 -20.094482 -5.473588 30.41921 -7.190827 1.735931 3e-06 -8.162925 -2e-06 -1.861904 -22.861467 -6.167942 -1e-06 -3e-06 -1e-06 177.411636 -1.379681 -5.839419 34.325157 -0.180798 0.36212 -97.97818 6.681066 -0.316631 -7.0752 1.38375 2.121512 -0.999999 0.0 0.0 -26.176104 -7.748753 -15.194361 15.603932 0.102282 -0.104202 -63.244808 -1.106604 -5.647317 -9.847048 0.895616 1.624819 -1.000003 0.0 0.0 
0.0 0.0 0.0 0.0 -0.0 0.0 -6.889795 95.323822 251.765015 91.066017 1.379905 94.984947 7.947142 -0.077396 -0.471046 -8.835067 -0.467424 -0.59366 21.775894 -1.659683 -3.5166 31.581976 -4.820798 2.710164 -2.697887 -0.578929 3.399745 -34.177036 -1.176446 5.270563 6e-06 -0.0 -0.0 -0.020332 0.021598 -0.053462 0.070815 0.03252 -0.010943 0.123544 0.00199 -0.084577 -91.675018 -78.551216 111.937531 33.264263 -48.6712 3.737223 43.404758 -1.782981 -0.51475 20.696726 10.804007 22.094233 17.636627 -26.322729 52.411201 -19.466665 -14.395602 29.410398 1e-06 -8.774824 -1e-06 15.679678 -18.53093 5.796183 -0.609776 -1.795653 -3.889328 -4.807091 -11.046813 -2.93785 4e-06 -20.976019 0.0 -5.019972 -25.033562 -4.031881 6e-06 0.0 -1e-06 -10.634533 -5.686968 -3.565589 10.573275 -17.922953 -3.113902 3e-06 -13.821211 1e-06 -0.501774 -31.181511 -4.027021 -11.381428 -59.274433 6.98245 -13.982716 -7.1502 -2.875041 13.772732 -8.401492 -3.218242 0.347733 -34.211555 0.771656 -0.963029 -17.73337 2.621021 -1e-06 3e-06 0.0 -17.346422 -20.095219 -4.20178 21.757561 -1.638374 3.866426 2e-06 -6.338825 3e-06 -1.69759 -22.591749 -6.194006 0.0 -5e-06 -2e-06 92.192451 -77.173096 109.002777 41.069756 -45.931004 15.306495 50.853626 0.433958 -0.012258 0.495262 17.629124 10.21656 22.182116 -20.375887 49.933311 -16.701817 -16.74353 28.476532 -2e-06 -12.690601 -1e-06 16.202248 -17.574173 2.492312 -0.105919 -1.513856 -4.27588 -5.039042 -5.612875 -2.953556 5e-06 -11.020527 -2e-06 -6.111297 -15.895334 -3.840471 0.0 -0.0 2e-06 -10.283372 -5.680289 -4.341838 11.028296 -11.302409 -2.372633 -1.384268 -14.238584 -6.320124 -0.625438 -26.924198 -3.827602 -4.349512 -49.817024 -3.785582 -13.708524 -7.363476 -3.720939 18.141153 -14.052741 -3.242677 8e-06 -18.787271 -3e-06 -0.429711 -8.456045 2.555506 -0.0 -0.0 0.0 -15.923534 -20.094486 -5.473588 30.419218 -7.190828 1.735925 3e-06 -8.162927 -3e-06 -1.8619 -22.861473 -6.167943 -1e-06 -4e-06 -2e-06 178.848785 -2.336342 -5.728405 33.200905 -0.224432 0.469684 -97.578453 7.175928 -0.824984 -7.58497 1.485003 2.127749 -0.999999 -0.0 -0.0 -27.089725 -7.549318 -14.692333 18.748503 0.125367 -0.012813 -63.181271 -1.984002 -4.615443 -9.456608 0.849648 1.650448 -1.000002 0.0 -0.0 
0.0 0.0 0.0 0.0 -0.0 0.0 -7.851193 95.505211 254.00322 90.939751 0.884056 95.167168 7.748956 0.027847 -0.548933 -8.878213 -0.505443 -0.719785 21.632853 -1.527885 -3.733075 31.315041 -4.726372 2.6877 -2.664976 -0.523442 3.0773 -34.038479 -1.251257 5.079268 5e-06 -0.0 0.0 -0.027424 0.037098 -0.108487 0.100776 0.061768 -0.067106 0.146316 0.004777 -0.13783 -91.018738 -78.837631 111.171341 33.452408 -48.655258 4.133882 43.45266 -1.772026 -0.493318 20.475002 10.979796 22.42569 17.636635 -26.322721 52.411182 -19.466658 -14.395596 29.410385 -1e-06 -8.774819 -2e-06 15.633683 -18.410345 5.835174 -0.609776 -1.795653 -3.889324 -4.807087 -11.046809 -2.93785 5e-06 -20.976015 0.0 -5.019969 -25.033556 -4.03188 6e-06 0.0 -1e-06 -10.634534 -5.686971 -3.565586 10.573277 -17.922947 -3.113901 4e-06 -13.821209 1e-06 -0.501776 -31.181505 -4.027013 -11.315954 -59.236065 7.022649 -13.982711 -7.150196 -2.875042 13.772725 -8.401492 -3.218239 0.347736 -34.211544 0.771656 -0.963027 -17.733368 2.621019 0.0 0.0 0.0 -17.346415 -20.095215 -4.20178 21.757555 -1.638377 3.866428 2e-06 -6.338823 1e-06 -1.697587 -22.591745 -6.194006 -1e-06 -4e-06 -2e-06 92.470825 -77.209366 108.620216 41.664921 -45.598705 15.499769 51.572048 0.623453 0.01963 0.035503 17.477201 10.214453 22.182116 -20.375896 49.933319 -16.701815 -16.743526 28.476536 -3e-06 -12.690601 1e-06 16.247568 -17.576441 2.486501 -0.10592 -1.513855 -4.275885 -5.039041 -5.612873 -2.953555 5e-06 -11.020525 -2e-06 -6.111297 -15.895334 -3.840469 0.0 -0.0 0.0 -10.283369 -5.680288 -4.341841 11.028295 -11.302407 -2.372633 -1.384268 -14.238581 -6.320124 -0.625437 -26.924192 -3.8276 -4.40463 -49.629353 -3.762247 -13.708524 -7.363478 -3.720939 18.14115 -14.052742 -3.242676 7e-06 -18.787271 -3e-06 -0.429711 -8.456045 2.555504 1e-06 -0.0 -1e-06 -15.923534 -20.094484 -5.473585 30.419214 -7.190829 1.735927 4e-06 -8.162929 -1e-06 -1.861899 -22.861473 -6.167946 -2e-06 -3e-06 -2e-06 -179.706528 -3.225287 -5.646663 32.127663 -0.232332 0.483898 -96.36496 7.667376 -1.293393 -8.178325 1.497741 2.151714 -0.999999 0.0 -0.0 -27.338175 -7.278699 -14.270761 20.748198 0.106011 0.011527 -62.963634 -2.312416 -3.862268 -9.070206 0.804206 1.640708 -1.000002 0.0 0.0 
